HIERARCHY
ROOT Hips
{
	OFFSET -0.001795 -0.223333 0.028219
	CHANNELS 6 Xposition Yposition Zposition Zrotation Yrotation Xrotation 
	JOINT LeftUpLeg
	{
		OFFSET 0.069520 -0.091406 -0.006815
		CHANNELS 3 Zrotation Yrotation Xrotation
		JOINT LeftLeg
		{
			OFFSET 0.034277 -0.375199 -0.004496
			CHANNELS 3 Zrotation Yrotation Xrotation
			JOINT LeftFoot
			{
				OFFSET -0.013596 -0.397961 -0.043693
				CHANNELS 3 Zrotation Yrotation Xrotation
				JOINT LeftToe
				{
					OFFSET 0.026358 -0.055791 0.119288
					CHANNELS 3 Zrotation Yrotation Xrotation
					End Site
					{
						OFFSET 0.000000 0.000000 0.000000
					}
				}
			}
		}
	}
	JOINT RightUpLeg
	{
		OFFSET -0.067670 -0.090522 -0.004320
		CHANNELS 3 Zrotation Yrotation Xrotation
		JOINT RightLeg
		{
			OFFSET -0.038290 -0.382569 -0.008850
			CHANNELS 3 Zrotation Yrotation Xrotation
			JOINT RightFoot
			{
				OFFSET 0.015774 -0.398415 -0.042312
				CHANNELS 3 Zrotation Yrotation Xrotation
				JOINT RightToe
				{
					OFFSET -0.025372 -0.048144 0.123348
					CHANNELS 3 Zrotation Yrotation Xrotation
					End Site
					{
						OFFSET 0.000000 0.000000 0.000000
					}
				}
			}
		}
	}
	JOINT Spine
	{
		OFFSET -0.002533 0.108963 -0.026696
		CHANNELS 3 Zrotation Yrotation Xrotation
		JOINT Spine1
		{
			OFFSET 0.005487 0.135180 0.001092
			CHANNELS 3 Zrotation Yrotation Xrotation
			JOINT Spine2
			{
				OFFSET 0.001457 0.052922 0.025425
				CHANNELS 3 Zrotation Yrotation Xrotation
				JOINT Neck
				{
					OFFSET -0.002778 0.213870 -0.042857
					CHANNELS 3 Zrotation Yrotation Xrotation
					JOINT Head
					{
						OFFSET 0.005152 0.064970 0.051349
						CHANNELS 3 Zrotation Yrotation Xrotation
						End Site
						{
							OFFSET 0.000000 0.000000 0.000000
						}
					}
				}
				JOINT LeftShoulder
				{
					OFFSET 0.078845 0.121749 -0.034090
					CHANNELS 3 Zrotation Yrotation Xrotation
					JOINT LeftArm
					{
						OFFSET 0.090977 0.030469 -0.008868
						CHANNELS 3 Zrotation Yrotation Xrotation
						JOINT LeftForeArm
						{
							OFFSET 0.259612 -0.012772 -0.027456
							CHANNELS 3 Zrotation Yrotation Xrotation
							JOINT LeftHand
							{
								OFFSET 0.249234 0.008986 -0.001171
								CHANNELS 3 Zrotation Yrotation Xrotation
								End Site
								{
									OFFSET 0.000000 0.000000 0.000000
								}
							}
						}
					}
				}
				JOINT RightShoulder
				{
					OFFSET -0.081759 0.118833 -0.038615
					CHANNELS 3 Zrotation Yrotation Xrotation
					JOINT RightArm
					{
						OFFSET -0.096012 0.032551 -0.009143
						CHANNELS 3 Zrotation Yrotation Xrotation
						JOINT RightForeArm
						{
							OFFSET -0.253742 -0.013329 -0.021401
							CHANNELS 3 Zrotation Yrotation Xrotation
							JOINT RightHand
							{
								OFFSET -0.255298 0.007772 -0.005559
								CHANNELS 3 Zrotation Yrotation Xrotation
								End Site
								{
									OFFSET 0.000000 0.000000 0.000000
								}
							}
						}
					}
				}
			}
		}
	}
}
MOTION
Frames: 9
Frame Time: 0.050000
0.000000 0.925770 0.000000 1.508721 -7.424958 -2.265460 8.807397 0.096809 -1.594931 -0.462217 -0.113318 8.416602 1.308034 5.727120 11.063070 0.000000 0.000000 0.000000 -9.997950 0.434941 -4.162209 1.071760 0.443594 12.680387 -5.341820 -15.019496 8.570702 0.000000 0.000000 0.000000 1.360770 -0.622135 14.610354 6.363993 -1.885275 -15.152706 3.345405 4.589844 23.525216 0.237490 1.154016 -19.201225 0.000000 0.000000 0.000000 -27.768878 -6.512012 2.320824 -42.382310 -5.376574 -4.947865 -19.594953 -34.716999 7.828396 0.000000 0.000000 0.000000 24.551578 15.930345 7.969487 45.584419 15.260365 -0.705640 -7.422453 24.713498 -0.503308 0.000000 0.000000 0.000000 
0.000448 0.925995 -0.001094 1.250255 -7.740827 -1.901281 9.101909 0.113296 -1.165984 -0.564676 -0.070469 7.039538 1.447103 5.942577 11.109185 0.000000 0.000000 0.000000 -9.563589 0.451471 -4.685699 0.750457 0.515009 12.685768 -5.214445 -14.828925 8.709857 0.000000 0.000000 0.000000 1.491691 -0.647062 14.947010 6.389048 -1.834996 -15.833552 4.179392 4.258305 23.018549 0.927142 0.544071 -18.058334 0.000000 0.000000 0.000000 -28.540553 -6.463572 2.474072 -42.710036 -3.856603 -5.495475 -18.128574 -34.411199 7.327839 0.000000 0.000000 0.000000 24.278243 17.078746 8.425381 46.613902 14.341564 -0.900223 -8.467335 26.218399 -0.773437 0.000000 0.000000 0.000000 
0.000756 0.925710 -0.001780 1.280778 -6.287077 -1.919474 9.512699 0.084262 -1.575957 -1.156603 0.024915 7.056987 0.747319 4.856232 10.862704 0.000000 0.000000 0.000000 -10.001861 0.418159 -4.766122 1.631068 0.338147 13.430760 -5.826201 -15.959745 9.092513 0.000000 0.000000 0.000000 1.260154 -0.639383 14.796378 7.429848 -2.117534 -15.986174 3.297332 3.573366 23.010125 0.707315 0.794292 -19.504213 0.000000 0.000000 0.000000 -29.067499 -5.899184 2.040518 -42.391152 -4.671151 -5.212559 -18.041808 -32.582465 6.881083 0.000000 0.000000 0.000000 23.582022 16.756855 8.241166 45.664648 14.988948 -0.716268 -7.920447 26.778575 -0.679166 0.000000 0.000000 0.000000 
0.001136 0.927042 -0.001974 1.501251 -6.593586 -2.266815 9.615693 0.109888 -0.957316 -1.838489 0.158806 6.667202 0.720793 4.925038 11.410058 0.000000 0.000000 0.000000 -10.140759 0.423304 -5.143960 1.395573 0.450507 14.510686 -5.621119 -15.676729 9.550714 0.000000 0.000000 0.000000 0.271372 -0.514968 15.399573 8.477647 -2.477810 -15.790664 3.638682 4.127371 22.507472 0.826506 0.757055 -19.071607 0.000000 0.000000 0.000000 -28.962971 -6.087318 1.981418 -42.163843 -3.362561 -5.507798 -20.049284 -34.095065 7.823498 0.000000 0.000000 0.000000 23.792458 17.090369 8.559314 45.374945 14.377285 -0.920873 -9.007720 29.311280 -0.997275 0.000000 0.000000 0.000000 
0.001563 0.927085 -0.001713 1.493164 -5.767457 -2.545513 9.539191 0.093505 -0.861183 -1.630682 0.110219 6.698225 0.336266 4.334501 11.260023 0.000000 0.000000 0.000000 -10.280239 0.386669 -4.533103 1.691510 0.355274 14.373140 -5.928404 -16.219863 9.774883 0.000000 0.000000 0.000000 0.539386 -0.575015 15.698042 8.551558 -2.539332 -15.320594 3.593510 4.216327 21.989023 0.794030 0.927815 -20.034828 0.000000 0.000000 0.000000 -28.288720 -6.100368 1.746561 -43.396167 -3.493877 -5.491810 -20.673399 -35.130050 8.269897 0.000000 0.000000 0.000000 23.700980 16.392643 8.300688 44.317443 14.708263 -0.808487 -9.711023 31.790684 -1.256756 0.000000 0.000000 0.000000 
0.002345 0.927381 -0.000986 1.609919 -4.973545 -2.631490 9.546959 0.077440 -0.575352 -1.870899 0.150389 6.065263 -0.074987 3.735693 11.268080 0.000000 0.000000 0.000000 -10.580965 0.360117 -4.431298 1.999025 0.279803 14.764213 -6.229941 -16.775256 10.182796 0.000000 0.000000 0.000000 0.305037 -0.571836 16.181668 9.020541 -2.601510 -16.001149 3.846253 4.888655 22.163067 1.551456 0.610296 -20.043445 0.000000 0.000000 0.000000 -28.732396 -6.683787 1.666667 -43.650256 -3.234260 -5.495896 -21.530907 -35.681689 8.611766 0.000000 0.000000 0.000000 23.178274 16.245939 8.537362 43.419196 15.803865 -0.570119 -12.385260 32.644505 -1.945062 0.000000 0.000000 0.000000 
0.003605 0.927529 -0.000026 1.705082 -3.957479 -2.579052 9.270309 0.043936 -0.669966 -1.620765 0.099819 5.781164 -0.512242 3.066659 11.128857 0.000000 0.000000 0.000000 -10.965910 0.328146 -4.292315 2.468926 0.147589 14.960277 -6.630749 -17.488715 10.651578 0.000000 0.000000 0.000000 0.677110 -0.654438 16.380804 8.898955 -2.518500 -16.245449 3.925966 5.136319 22.017153 2.406739 0.179202 -20.005558 0.000000 0.000000 0.000000 -29.066149 -6.688232 1.306536 -44.050563 -2.869672 -5.554757 -22.735586 -36.853756 9.277728 0.000000 0.000000 0.000000 23.164604 16.549411 8.993230 41.523778 18.169063 0.090837 -14.986580 30.231438 -2.402261 0.000000 0.000000 0.000000 
0.005338 0.927649 0.000826 1.668787 -3.188489 -2.485801 9.131674 0.020112 -0.724451 -1.437498 0.066799 5.462898 -0.829462 2.559768 10.957249 0.000000 0.000000 0.000000 -11.102873 0.305073 -4.231669 2.683561 0.076694 15.110299 -6.932628 -18.019543 11.106820 0.000000 0.000000 0.000000 0.925809 -0.726386 16.855803 8.922592 -2.458040 -16.699762 4.470764 6.092891 21.929239 2.859187 0.119780 -20.247228 0.000000 0.000000 0.000000 -29.895047 -6.942528 0.835716 -43.970965 -2.367338 -5.518304 -25.113411 -38.480006 10.458455 0.000000 0.000000 0.000000 23.018245 17.346031 9.875662 38.594671 21.096770 0.753574 -17.388708 24.357615 -2.314533 0.000000 0.000000 0.000000 
0.007040 0.927630 0.001409 1.904535 -2.203051 -2.471710 8.540354 -0.009698 -0.740323 -0.966652 -0.010304 5.090994 -1.233746 1.922183 10.796450 0.000000 0.000000 0.000000 -11.355049 0.271448 -4.210512 2.618230 0.071220 15.544297 -7.353593 -18.735685 11.574201 0.000000 0.000000 0.000000 1.371807 -0.821706 16.995610 8.629763 -2.317065 -16.996350 5.161683 6.718953 21.811832 3.283738 0.058465 -20.597452 0.000000 0.000000 0.000000 -29.848962 -7.099402 0.439752 -44.450856 -1.575261 -5.686008 -27.886530 -40.142515 11.890804 0.000000 0.000000 0.000000 23.072815 18.062332 10.671015 35.562675 23.806912 1.216599 -18.062361 17.699655 -1.647933 0.000000 0.000000 0.000000 
